<svg xmlns="http://www.w3.org/2000/svg" fill="none" viewBox="0 0 256 256">
  <path fill="#000" d="M236.578 65.7833c-90.711-60.74665-91.12-61.05345-91.529-61.25798-10.636-6.03376-24.237-6.03376-34.873 0-.409.20453-.818.51133-91.5291 61.25798C8.82923 72.3284 3 83.3732 3 95.2362V220.513c0 19.533 15.8514 35.385 35.3844 35.385h61.3602v-18.306H38.3844c-9.4086 0-17.0786-7.67-17.0786-17.079V95.2362c0-5.727 2.8635-11.0449 7.5678-14.2151C58.4288 61.1813 116.414 22.3198 119.278 20.479c4.806-2.659 11.658-2.7612 16.362-.1023 2.557 1.6363 48.373 32.3164 90.711 60.7466 4.705 3.1703 7.568 8.4882 7.568 14.2152V220.616c0 9.408-7.67 17.078-17.079 17.078h-80.075v-80.689H118.46v89.791c0 5.011 4.09 9.204 9.204 9.204h89.279c19.533 0 35.384-15.851 35.384-35.384V95.2362c0-11.863-5.931-22.8056-15.749-29.4529Z"/>
  <path fill="#0F0" d="M163.252 115.792c-19.635-19.6354-51.644-19.6354-71.2797 0-19.6353 19.635-19.6353 51.645 0 71.28 1.3295 1.33 3.068 2.045 4.8066 2.045 1.8408 0 3.5791-.715 4.8061-2.045 2.659-2.659 2.659-7.056 0-9.715-6.9537-6.954-10.7376-16.159-10.7376-25.976 0-9.818 3.7839-19.022 10.7376-25.976 14.318-14.317 37.635-14.317 51.85 0 6.954 6.954 10.738 16.158 10.738 25.976 0 9.817-3.784 19.022-10.738 25.976-2.659 2.659-2.659 7.056 0 9.715 1.329 1.33 3.068 2.045 4.806 2.045 1.841 0 3.58-.715 4.807-2.045 19.942-19.635 19.942-51.645.204-71.28Z"/>
  <path fill="#0F0" d="M187.388 92.3727c-15.954-15.9537-37.123-24.7486-59.724-24.7486-22.499 0-43.7707 8.7949-59.7244 24.7486C51.9859 108.326 43.191 129.496 43.191 152.097c0 22.498 8.7949 43.77 24.7486 59.724 1.7385 1.738 3.9884 2.659 6.3406 2.659 2.3521 0 4.602-.921 6.3405-2.659 1.7386-1.739 2.659-3.989 2.659-6.341 0-2.352-.9204-4.602-2.659-6.34C68.0419 186.561 61.19 169.891 61.19 152.097c0-17.795 6.9541-34.464 19.4307-47.043 12.5789-12.579 29.2483-19.4309 47.0433-19.4309 17.794 0 34.464 6.9541 47.042 19.4309 25.874 25.976 25.874 68.11 0 93.983-3.477 3.477-3.477 9.204 0 12.681 1.739 1.739 3.989 2.659 6.341 2.659 2.352 0 4.602-.92 6.341-2.659 32.827-32.93 32.827-86.415 0-119.3453Z"/>
</svg>
